<svg xmlns="http://www.w3.org/2000/svg" viewBox="0 0 480 180" width="480" height="180">
  <!-- E -->
  <path d="M30 20 h70 v24 h-44 v30 h36 v24 h-36 v30 h44 v24 h-70 z" fill="white"/>
  <!-- c -->
  <path d="M130 62 h60 v24 h-34 v40 h34 v24 h-60 v-88 z" fill="white"/>
  <!-- x -->
  <path d="M220 62 h30 l25 36 25-36 h30 l-38 44 38 44 h-30 l-25-36-25 36 h-30 l38-44 z" fill="white"/>
  <!-- i dot -->
  <rect x="362" y="20" width="26" height="26" rx="5" fill="white"/>
  <!-- i stem -->
  <rect x="362" y="62" width="26" height="88" fill="white"/>
  <!-- i dot -->
  <rect x="408" y="20" width="26" height="26" rx="5" fill="white"/>
  <!-- i stem -->
  <rect x="408" y="62" width="26" height="88" fill="white"/>
</svg>
